<svg width="295" height="264" viewBox="0 0 295 264" fill="none" xmlns="http://www.w3.org/2000/svg">
<path fill-rule="evenodd" clip-rule="evenodd" d="M58.911 32.7507C77.5817 12.0154 104.881 -6.019 140.122 1.90792C166.031 7.73606 176.995 30.2433 181.621 55.99C186.246 81.7317 184.607 111.116 185.033 131.099C185.346 145.778 188.685 162.361 195.715 175.849C202.742 189.332 213.404 199.637 228.348 202.001L228.816 202.074C233.11 202.173 237.075 201.014 240.565 199.089C247.834 195.078 253.069 187.738 254.863 181.434C251.162 175.945 246.524 172.125 241.535 168.723C238.989 166.988 236.372 165.373 233.73 163.689C231.097 162.01 228.451 160.27 225.895 158.307C220.774 154.375 216.004 149.545 212.314 142.471C208.628 135.405 206.042 126.144 205.214 113.38L205.134 112.129L206.298 112.594C219.491 117.873 231.118 123.298 240.139 128.722C247.289 133.023 252.88 137.369 256.29 141.699C255.711 136.623 256.412 131.268 257.882 125.91C259.735 119.155 262.824 112.339 266.184 105.98C269.545 99.6218 273.195 93.6859 276.174 88.7126C277.666 86.2211 278.986 83.9759 280.025 82.03C281.07 80.0745 281.804 78.4667 282.151 77.2409L282.753 75.1169L283.637 77.1384C290.604 93.0707 295.157 108.459 294.52 125.005C293.884 141.535 288.073 159.141 274.468 179.54C265.199 207.392 249.961 230.696 226.92 245.576C205.02 259.718 176.161 266.191 138.874 261.834C136.44 261.57 134.058 261.257 131.715 260.884L130.976 260.777L130.991 260.764C123.716 259.562 116.798 257.778 109.807 255.148C93.4385 248.991 76.7275 238.236 54.0956 219.659C52.0412 217.973 50.0816 217.194 48.2079 217.035C46.3279 216.875 44.462 217.332 42.5917 218.237C38.8128 220.066 35.1754 223.634 31.5976 227.217C29.8277 228.99 28.0737 230.763 26.3603 232.27C24.6502 233.775 22.9324 235.06 21.2187 235.83C19.4915 236.606 17.7142 236.882 15.9452 236.283C14.1914 235.689 12.5805 234.28 11.078 231.969C-1.05274 213.313 -1.79706 195.676 2.10147 181.3C5.9219 167.212 14.1928 156.276 20.5106 150.551C13.5938 116.592 26.904 87.5514 28.9687 80.6745C29.5204 78.8371 32.3508 72.0328 37.3495 63.1277C42.358 54.2051 49.5705 43.1242 58.911 32.7507ZM165.286 75.2107C163.879 63.1701 161.643 44.8415 140.861 48.614C120.08 52.3876 118.62 111.332 144.607 113.976C155.532 115.087 167.498 94.1436 165.286 75.2107Z" fill="black"/>
<path d="M258.671 44.7761C267.949 54.2051 272.222 62.7515 273.322 70.6589C274.422 78.5647 272.333 85.7186 269.111 92.3249C265.907 98.8942 261.507 105.053 257.985 110.83C254.424 116.672 251.748 122.139 251.679 127.558L251.639 130.584L250.193 127.925C244.635 117.708 240.564 102.637 240.822 87.2839C241.08 71.9256 245.675 56.1892 257.559 44.7614L258.124 44.2185L258.671 44.7761Z" fill="black"/>
<path d="M196.665 77.8454C202.926 75.7611 211.5 75.2503 220.24 81.5446C228.937 87.8081 237.682 100.731 244.551 125.215L245.229 127.635L243.287 126.039C236.516 120.473 230.692 117.062 225.642 114.505C223.11 113.223 220.776 112.157 218.594 111.132C216.419 110.11 214.392 109.128 212.516 108.029C208.739 105.816 205.566 103.124 202.873 98.6335C200.195 94.1674 198.015 87.9597 196.14 78.7536L195.999 78.0671L196.665 77.8454Z" fill="black"/>
<path d="M190.884 19.5944C214.738 21.6827 228.46 30.8832 234.962 43.5778C241.436 56.219 240.637 72.1176 235.934 87.403L235.611 88.4538L234.718 87.8122C212.622 71.9409 205.117 59.2123 201.31 48.3347C200.364 45.6297 199.651 43.0481 198.998 40.5857C198.343 38.1147 197.755 35.7799 197.053 33.5202C195.655 29.0223 193.824 24.8919 190.228 20.9128L188.878 19.4196L190.884 19.5944Z" fill="black"/>
</svg>
